<svg width="218" height="24" viewBox="0 0 218 24" fill="none" xmlns="http://www.w3.org/2000/svg">
<path fill-rule="evenodd" clip-rule="evenodd" d="M69.8319 21.5112C69.8319 21.9791 69.5962 22.2131 69.1248 22.2131H60.82C60.6194 22.2131 60.4564 22.1546 60.331 22.0376C60.2056 21.9206 60.1429 21.7554 60.1429 21.5418C60.1429 21.3587 60.1856 21.2112 60.2708 21.0993C60.3561 20.9874 60.489 20.8959 60.6695 20.8247L61.3164 20.6263C61.4769 20.5754 61.6023 20.4788 61.6926 20.3364C61.7828 20.194 61.828 19.9906 61.828 19.7261V10.9073C61.828 10.7649 61.7929 10.6454 61.7227 10.5487C61.6524 10.4521 61.5221 10.3631 61.3315 10.2817L60.4589 9.99185C60.2282 9.87996 60.0627 9.76044 59.9624 9.6333C59.8621 9.50615 59.8119 9.35103 59.8119 9.16794C59.8119 8.98485 59.8746 8.83482 60 8.71785L60.0493 8.67672C60.1694 8.58717 60.326 8.54239 60.5191 8.54239H61.8393L61.8289 8.45323C61.8007 8.27491 61.7302 8.10374 61.6173 7.93972C61.4669 7.72103 61.2964 7.47436 61.1058 7.19973C60.9152 6.9251 60.7447 6.59706 60.5943 6.21562C60.4438 5.83419 60.3686 5.36375 60.3686 4.80431C60.3686 3.47182 60.82 2.40634 61.7227 1.60787C62.6254 0.809393 63.9092 0.410156 65.5742 0.410156C66.6474 0.410156 67.5375 0.583074 68.2446 0.92891C68.9517 1.27475 69.4808 1.73501 69.8319 2.30971C70.1829 2.88441 70.3584 3.51251 70.3584 4.19401C70.3584 4.99757 70.1503 5.60024 69.7341 6.00202C69.3178 6.4038 68.7837 6.60469 68.1318 6.60469C67.4096 6.60469 66.8279 6.37074 66.3866 5.90285C65.9453 5.43495 65.7246 4.81448 65.7246 4.04143V2.68352C65.7246 2.32751 65.6544 2.06559 65.514 1.89776C65.3736 1.72993 65.1579 1.64601 64.867 1.64601C64.4959 1.64601 64.2151 1.77316 64.0245 2.02745C63.834 2.28174 63.7387 2.64792 63.7387 3.12599C63.7387 3.61422 63.8515 4.07195 64.0772 4.49916C64.3029 4.92637 64.5812 5.3256 64.9122 5.69687C65.2432 6.06813 65.5742 6.42414 65.9051 6.76489C66.2361 7.10564 66.5145 7.44131 66.7401 7.77189L66.8045 7.87098C66.9263 8.06902 67.0076 8.26615 67.0482 8.46236L67.0619 8.54239H69.2903C69.5209 8.54239 69.699 8.5907 69.8243 8.68733C69.9497 8.78397 70.0124 8.934 70.0124 9.13743C70.0124 9.44258 69.882 9.69178 69.6212 9.88505C69.3605 10.0783 68.9492 10.1749 68.3876 10.1749H67.3194V19.6803C67.3194 19.9651 67.362 20.1838 67.4473 20.3364C67.5325 20.489 67.6704 20.5805 67.861 20.611L69.1549 20.8094C69.3855 20.8399 69.556 20.9137 69.6664 21.0306C69.7767 21.1476 69.8319 21.3078 69.8319 21.5112ZM40.2084 21.8612C39.3057 22.2986 38.2526 22.5173 37.049 22.5173C35.7752 22.5173 34.6343 22.2478 33.6262 21.7087C32.6182 21.1696 31.8234 20.3889 31.2416 19.3667C30.6599 18.3444 30.369 17.1009 30.369 15.6362C30.369 14.2223 30.6724 12.9585 31.2792 11.8447C31.886 10.7309 32.7311 9.85108 33.8143 9.20518C34.8975 8.55928 36.1613 8.23633 37.6056 8.23633C38.8393 8.23633 39.8799 8.41942 40.7275 8.7856C41.575 9.15178 42.2219 9.64764 42.6683 10.2732C43.1146 10.8988 43.3377 11.5981 43.3377 12.3711C43.3377 13.1848 43.1046 13.8231 42.6382 14.2859C42.1718 14.7487 41.5374 14.9801 40.735 14.9801C39.9125 14.9801 39.2882 14.7436 38.8619 14.2707C38.4356 13.7977 38.2225 13.1492 38.2225 12.3253V11.3489C38.2225 10.8504 38.1322 10.4741 37.9517 10.2198C37.7711 9.96551 37.5154 9.83836 37.1844 9.83836C36.8534 9.83836 36.555 9.97314 36.2892 10.2427C36.0234 10.5122 35.8178 10.9166 35.6724 11.4557C35.5269 11.9948 35.4542 12.661 35.4542 13.4544C35.4542 14.5936 35.6222 15.5497 35.9582 16.3228C36.2942 17.0958 36.7531 17.6756 37.3348 18.0621C37.9166 18.4487 38.5785 18.6419 39.3208 18.6419C40.063 18.6419 40.6848 18.5326 41.1863 18.3139C41.6878 18.0952 42.074 17.7265 42.3448 17.2077C42.4952 17.0653 42.6131 16.9738 42.6983 16.9331C42.7836 16.8924 42.8663 16.8721 42.9466 16.8721C43.0469 16.8822 43.1296 16.9305 43.1948 17.017C43.26 17.1035 43.2876 17.2382 43.2776 17.4213C43.1973 18.4181 42.8914 19.298 42.3598 20.0609C41.8282 20.8237 41.1111 21.4239 40.2084 21.8612ZM55.5016 21.5561C54.3732 22.1766 53.0618 22.4868 51.5673 22.4868C50.113 22.4868 48.8367 22.1842 47.7384 21.579C46.6401 20.9738 45.7851 20.1372 45.1732 19.0691C44.5614 18.0011 44.2555 16.7653 44.2555 15.3616C44.2555 14.0189 44.5765 12.811 45.2184 11.7379C45.8603 10.6648 46.7479 9.81293 47.8813 9.18229C49.0147 8.55165 50.3186 8.23633 51.793 8.23633C53.2574 8.23633 54.5362 8.54148 55.6295 9.15178C56.7227 9.76208 57.5753 10.6063 58.1871 11.6845C58.7989 12.7627 59.1048 14.0087 59.1048 15.4226C59.1048 16.7653 58.7864 17.9681 58.1495 19.031C57.5126 20.0939 56.6299 20.9356 55.5016 21.5561ZM52.7108 20.9C52.3998 20.961 52.0964 20.8237 51.8005 20.488C51.5047 20.1524 51.2238 19.5878 50.958 18.7944C50.6922 18.001 50.439 16.9585 50.1983 15.6667C49.9676 14.3749 49.8372 13.3119 49.8071 12.4778C49.777 11.6438 49.8372 11.0131 49.9876 10.5859C50.1381 10.1587 50.3688 9.9095 50.6797 9.8383C50.9906 9.77727 51.294 9.91459 51.5899 10.2503C51.8858 10.5859 52.1691 11.1504 52.4399 11.9438C52.7108 12.7372 52.9665 13.7798 53.2072 15.0716C53.448 16.3634 53.5809 17.4289 53.6059 18.2681C53.631 19.1072 53.5658 19.7404 53.4103 20.1676C53.2549 20.5948 53.0217 20.8389 52.7108 20.9ZM79.6261 22.2131C80.0975 22.2131 80.3332 21.9791 80.3332 21.5112C80.3332 21.3078 80.2781 21.1476 80.1677 21.0306C80.0574 20.9137 79.8869 20.8399 79.6562 20.8094L78.3623 20.611C78.1718 20.5805 78.0339 20.489 77.9486 20.3364C77.8634 20.1838 77.8207 19.9651 77.8207 19.6803V10.1749H78.8889C79.4506 10.1749 79.8618 10.0783 80.1226 9.88505C80.3834 9.69178 80.5138 9.44258 80.5138 9.13743C80.5138 8.934 80.4511 8.78397 80.3257 8.68733C80.2003 8.5907 80.0223 8.54239 79.7916 8.54239H77.5633L77.5495 8.46236C77.5089 8.26615 77.4277 8.06902 77.3058 7.87098L77.2415 7.77189C77.0158 7.44131 76.7375 7.10564 76.4065 6.76489C76.0755 6.42414 75.7445 6.06813 75.4135 5.69687C75.0826 5.3256 74.8042 4.92637 74.5785 4.49916C74.3529 4.07195 74.24 3.61422 74.24 3.12599C74.24 2.64792 74.3353 2.28174 74.5259 2.02745C74.7165 1.77316 74.9973 1.64601 75.3684 1.64601C75.6593 1.64601 75.8749 1.72993 76.0153 1.89776C76.1558 2.06559 76.226 2.32751 76.226 2.68352V4.04143C76.226 4.81448 76.4466 5.43495 76.8879 5.90285C77.3293 6.37074 77.911 6.60469 78.6332 6.60469C79.2851 6.60469 79.8192 6.4038 80.2354 6.00202C80.6517 5.60024 80.8598 4.99757 80.8598 4.19401C80.8598 3.51251 80.6843 2.88441 80.3332 2.30971C79.9822 1.73501 79.4531 1.27475 78.746 0.92891C78.0389 0.583074 77.1487 0.410156 76.0755 0.410156C74.4105 0.410156 73.1267 0.809393 72.224 1.60787C71.3213 2.40634 70.87 3.47182 70.87 4.80431C70.87 5.36375 70.9452 5.83419 71.0956 6.21562C71.2461 6.59706 71.4166 6.9251 71.6072 7.19973C71.7977 7.47436 71.9683 7.72103 72.1187 7.93972C72.2315 8.10374 72.3021 8.27491 72.3303 8.45323L72.3406 8.54239H71.0204C70.8273 8.54239 70.6707 8.58717 70.5506 8.67672L70.5014 8.71785C70.376 8.83482 70.3133 8.98485 70.3133 9.16794C70.3133 9.35103 70.3635 9.50615 70.4638 9.6333C70.5641 9.76044 70.7296 9.87996 70.9602 9.99185L71.8328 10.2817C72.0234 10.3631 72.1538 10.4521 72.224 10.5487C72.2942 10.6454 72.3293 10.7649 72.3293 10.9073V19.7261C72.3293 19.9906 72.2842 20.194 72.1939 20.3364C72.1037 20.4788 71.9783 20.5754 71.8178 20.6263L71.1709 20.8247C70.9903 20.8959 70.8574 20.9874 70.7722 21.0993C70.6869 21.2112 70.6443 21.3587 70.6443 21.5418C70.6443 21.7554 70.707 21.9206 70.8324 22.0376C70.9577 22.1546 71.1207 22.2131 71.3213 22.2131H79.6261ZM91.4063 21.7697C90.4334 22.2681 89.31 22.5173 88.0362 22.5173C86.632 22.5173 85.3984 22.2249 84.3352 21.64C83.272 21.0551 82.442 20.2363 81.8452 19.1836C81.2485 18.1308 80.9501 16.9127 80.9501 15.5294C80.9501 14.0749 81.2384 12.8009 81.8152 11.7074C82.3919 10.614 83.2269 9.76208 84.3201 9.15178C85.4134 8.54148 86.7273 8.23633 88.2619 8.23633C89.5658 8.23633 90.6892 8.49316 91.632 9.00683C92.5748 9.5205 93.2995 10.2173 93.806 11.0971C94.3125 11.977 94.5657 12.956 94.5657 14.0342C94.5657 14.5021 94.4404 14.8708 94.1896 15.1403L94.1298 15.2001C93.8827 15.4298 93.5415 15.5447 93.1064 15.5447H86.2288L86.2435 15.615C86.426 16.4527 86.7377 17.1235 87.1787 17.6273C87.9309 18.4868 88.9339 18.9166 90.1877 18.9166C90.9901 18.9166 91.6997 18.7335 92.3165 18.3673C92.9334 18.0011 93.3471 17.4925 93.5577 16.8415C93.6781 16.7093 93.7859 16.6203 93.8812 16.5745C93.9765 16.5288 94.0592 16.5059 94.1294 16.5059C94.2297 16.5059 94.315 16.5466 94.3852 16.6279C94.4554 16.7093 94.4905 16.8466 94.4905 17.0399C94.4905 18.0367 94.2197 18.9496 93.6781 19.7786C93.1365 20.6076 92.3792 21.2713 91.4063 21.7697ZM86.0718 14.3225C86.0575 14.0884 86.0503 13.8451 86.0503 13.5926C86.0503 12.6365 86.1205 11.8838 86.2609 11.3345C86.4014 10.7852 86.5819 10.3962 86.8026 10.1673C87.0232 9.93845 87.2689 9.82401 87.5398 9.82401C87.8908 9.82401 88.2193 10.1241 88.5252 10.7242C88.8311 11.3243 88.9841 12.3212 88.9841 13.7147C88.9841 14.1419 88.7935 14.3555 88.4124 14.3555H86.0737L86.0718 14.3225ZM105.789 21.7697C104.816 22.2681 103.693 22.5173 102.419 22.5173C101.015 22.5173 99.7813 22.2249 98.7181 21.64C97.6549 21.0551 96.825 20.2363 96.2282 19.1836C95.6314 18.1308 95.333 16.9127 95.333 15.5294C95.333 14.0749 95.6214 12.8009 96.1981 11.7074C96.7748 10.614 97.6098 9.76208 98.7031 9.15178C99.7963 8.54148 101.11 8.23633 102.645 8.23633C103.949 8.23633 105.072 8.49316 106.015 9.00683C106.958 9.5205 107.682 10.2173 108.189 11.0971C108.695 11.977 108.949 12.956 108.949 14.0342C108.949 14.5021 108.823 14.8708 108.573 15.1403L108.513 15.2001C108.266 15.4298 107.924 15.5447 107.489 15.5447H100.612L100.626 15.615C100.809 16.4527 101.121 17.1235 101.562 17.6273C102.314 18.4868 103.317 18.9166 104.571 18.9166C105.373 18.9166 106.083 18.7335 106.699 18.3673C107.316 18.0011 107.73 17.4925 107.941 16.8415C108.061 16.7093 108.169 16.6203 108.264 16.5745C108.359 16.5288 108.442 16.5059 108.512 16.5059C108.613 16.5059 108.698 16.5466 108.768 16.6279C108.838 16.7093 108.873 16.8466 108.873 17.0399C108.873 18.0367 108.603 18.9496 108.061 19.7786C107.519 20.6076 106.762 21.2713 105.789 21.7697ZM100.455 14.3225C100.44 14.0884 100.433 13.8451 100.433 13.5926C100.433 12.6365 100.503 11.8838 100.644 11.3345C100.784 10.7852 100.965 10.3962 101.186 10.1673C101.406 9.93845 101.652 9.82401 101.923 9.82401C102.274 9.82401 102.602 10.1241 102.908 10.7242C103.214 11.3243 103.367 12.3212 103.367 13.7147C103.367 14.1419 103.176 14.3555 102.795 14.3555H100.457L100.455 14.3225ZM118.615 22.0215C118.49 22.1486 118.307 22.2122 118.066 22.2122H110.543C110.323 22.2122 110.15 22.1511 110.024 22.0291C109.899 21.907 109.836 21.7392 109.836 21.5256C109.836 21.3628 109.874 21.2281 109.949 21.1213C110.024 21.0145 110.127 20.9153 110.258 20.8237L110.604 20.6864C110.734 20.6254 110.824 20.5288 110.874 20.3965C110.925 20.2643 110.95 20.0456 110.95 19.7405V11.9897C110.95 11.7455 110.922 11.5701 110.867 11.4633C110.812 11.3565 110.719 11.2726 110.589 11.2115L110.197 11.1658C110.057 11.0844 109.954 10.9979 109.889 10.9064C109.824 10.8148 109.791 10.6979 109.791 10.5555C109.791 10.3927 109.841 10.2478 109.942 10.1206C110.042 9.99348 110.212 9.88414 110.453 9.79259L114.726 8.55674C114.977 8.45502 115.187 8.38382 115.358 8.34313C115.528 8.30244 115.674 8.2821 115.794 8.2821C115.965 8.2821 116.093 8.34313 116.178 8.46519L116.205 8.50946C116.276 8.63704 116.324 8.84098 116.351 9.12126L116.465 11.4921L116.491 11.4046C116.542 11.2394 116.598 11.081 116.659 10.9293C117.025 10.0189 117.509 9.34249 118.111 8.90003C118.713 8.45756 119.37 8.23633 120.082 8.23633C120.945 8.23633 121.606 8.52622 122.068 9.106C122.529 9.68579 122.76 10.5656 122.76 11.7455C122.76 12.9153 122.519 13.7748 122.038 14.3241C121.556 14.8733 120.934 15.148 120.172 15.148C119.43 15.148 118.881 14.9598 118.525 14.5834C118.169 14.2071 117.981 13.6731 117.961 12.9814L117.946 12.3711C117.936 12.1372 117.89 11.9541 117.81 11.8218C117.73 11.6896 117.6 11.6235 117.419 11.6235C117.238 11.6235 117.08 11.7176 116.945 11.9057C116.81 12.0939 116.707 12.3813 116.637 12.7678C116.566 13.1543 116.531 13.6476 116.531 14.2478V19.6184C116.531 19.9032 116.576 20.1295 116.667 20.2974C116.757 20.4652 116.897 20.5695 117.088 20.6101L118.216 20.839C118.427 20.8695 118.577 20.9483 118.668 21.0755C118.758 21.2026 118.803 21.3527 118.803 21.5256C118.803 21.729 118.74 21.8943 118.615 22.0215ZM130.644 22.4868C132.138 22.4868 133.449 22.1766 134.578 21.5561C135.706 20.9356 136.589 20.0939 137.226 19.031C137.863 17.9681 138.181 16.7653 138.181 15.4226C138.181 14.0087 137.875 12.7627 137.263 11.6845C136.651 10.6063 135.799 9.76208 134.706 9.15178C133.612 8.54148 132.334 8.23633 130.869 8.23633C129.395 8.23633 128.091 8.55165 126.957 9.18229C125.824 9.81293 124.936 10.6648 124.295 11.7379C123.653 12.811 123.332 14.0189 123.332 15.3616C123.332 16.7653 123.638 18.0011 124.249 19.0691C124.861 20.1372 125.716 20.9738 126.815 21.579C127.913 22.1842 129.189 22.4868 130.644 22.4868ZM130.877 20.488C131.173 20.8237 131.476 20.961 131.787 20.9C132.098 20.8389 132.331 20.5948 132.487 20.1676C132.642 19.7404 132.707 19.1072 132.682 18.2681C132.657 17.4289 132.524 16.3634 132.283 15.0716C132.043 13.7798 131.787 12.7372 131.516 11.9438C131.245 11.1504 130.962 10.5859 130.666 10.2503C130.37 9.91459 130.067 9.77727 129.756 9.8383C129.445 9.9095 129.214 10.1587 129.064 10.5859C128.913 11.0131 128.853 11.6438 128.883 12.4778C128.913 13.3119 129.044 14.3749 129.274 15.6667C129.515 16.9585 129.768 18.001 130.034 18.7944C130.3 19.5878 130.581 20.1524 130.877 20.488ZM150.112 22.5173C150.954 22.5173 151.646 22.3622 152.188 22.052C152.729 21.7417 153.133 21.373 153.399 20.9458C153.665 20.5186 153.798 20.127 153.798 19.771C153.798 19.6184 153.765 19.4913 153.7 19.3895C153.635 19.2878 153.547 19.237 153.437 19.237C153.386 19.237 153.341 19.2471 153.301 19.2675C153.261 19.2878 153.226 19.3183 153.196 19.359C153.146 19.5421 153.068 19.6693 152.963 19.7405C152.857 19.8117 152.745 19.8473 152.624 19.8473C152.454 19.8473 152.326 19.7888 152.241 19.6718C152.155 19.5548 152.113 19.3997 152.113 19.2064V12.4626C152.113 11.12 151.659 10.0799 150.751 9.34249C149.843 8.60505 148.422 8.23633 146.486 8.23633C144.981 8.23633 143.725 8.4245 142.717 8.80085C141.709 9.17721 140.952 9.65782 140.445 10.2427C139.939 10.8276 139.686 11.4251 139.686 12.0354C139.686 12.6864 139.874 13.1823 140.25 13.523C140.626 13.8638 141.17 14.0342 141.882 14.0342C142.755 14.0342 143.442 13.7977 143.943 13.3247C144.445 12.8517 144.695 12.2389 144.695 11.4862V10.3266C144.695 10.0418 144.783 9.82056 144.959 9.6629C145.134 9.50524 145.352 9.42641 145.613 9.42641C145.894 9.42641 146.117 9.53067 146.283 9.73919C146.448 9.94771 146.531 10.23 146.531 10.586L146.531 15.0335L146.451 15.0161C146.209 14.9694 145.928 14.9427 145.61 14.936L145.448 14.9344C143.291 14.9344 141.684 15.3005 140.626 16.0329C139.568 16.7653 139.039 17.7875 139.039 19.0996C139.039 20.0965 139.402 20.9153 140.129 21.5561C140.857 22.1969 141.822 22.5173 143.025 22.5173C143.928 22.5173 144.771 22.3317 145.553 21.9604C146.14 21.682 146.617 21.3163 146.983 20.8633L147.004 20.8369L147.026 20.9051C147.142 21.2349 147.354 21.5304 147.662 21.7916L147.757 21.8689C148.314 22.3012 149.099 22.5173 150.112 22.5173ZM144.929 19.6417C145.174 19.9723 145.498 20.1376 145.899 20.1376L145.985 20.1346C146.156 20.1227 146.322 20.075 146.482 19.9916L146.531 19.9638V16.0486L146.456 16.0257C146.285 15.9799 146.085 15.957 145.854 15.957C145.463 15.957 145.149 16.1401 144.914 16.5063C144.678 16.8725 144.56 17.4116 144.56 18.1236C144.56 18.8051 144.683 19.3111 144.929 19.6417ZM160.718 22.5631C162.504 22.5631 163.873 22.1511 164.826 21.3272C165.778 20.5033 166.255 19.3794 166.255 17.9553C166.255 17.0907 166.094 16.333 165.773 15.682C165.452 15.031 164.891 14.4537 164.088 13.9503C163.286 13.4468 162.158 12.9712 160.703 12.5237C160.162 12.3508 159.743 12.1753 159.447 11.9973C159.151 11.8193 158.948 11.6286 158.838 11.4251C158.727 11.2217 158.672 11.003 158.672 10.7691C158.672 10.4232 158.798 10.1435 159.048 9.92991C159.299 9.7163 159.67 9.6095 160.162 9.6095C160.844 9.6095 161.488 9.83836 162.095 10.2961C162.702 10.7538 163.371 11.537 164.103 12.6457C164.294 12.8797 164.485 13.0501 164.675 13.1569C164.866 13.2637 165.046 13.2967 165.217 13.256C165.427 13.195 165.558 13.0551 165.608 12.8365C165.658 12.6178 165.648 12.305 165.578 11.8981L165.187 9.09075C165.147 8.79577 165.071 8.58725 164.961 8.46519C164.851 8.34313 164.705 8.2821 164.525 8.2821C164.364 8.2821 164.164 8.33804 163.923 8.44993C163.682 8.56182 163.444 8.67625 163.208 8.79323C162.973 8.9102 162.795 8.96869 162.674 8.96869C162.564 8.96869 162.401 8.90766 162.185 8.7856C161.97 8.66354 161.666 8.54148 161.275 8.41942C160.884 8.29736 160.377 8.23633 159.755 8.23633C158.722 8.23633 157.792 8.4245 156.965 8.80085C156.137 9.17721 155.485 9.71376 155.009 10.4105C154.532 11.1073 154.294 11.9388 154.294 12.9051C154.294 13.7595 154.472 14.5071 154.828 15.148C155.184 15.7888 155.728 16.338 156.461 16.7958C157.193 17.2535 158.116 17.6248 159.229 17.9096C159.951 18.1028 160.505 18.2986 160.891 18.497C161.277 18.6953 161.543 18.9115 161.689 19.1454C161.834 19.3794 161.907 19.6387 161.907 19.9235C161.907 20.2999 161.781 20.6101 161.531 20.8543C161.28 21.0984 160.899 21.2204 160.387 21.2204C159.906 21.2204 159.447 21.1162 159.011 20.9077C158.574 20.6991 158.126 20.3406 157.664 19.832C157.203 19.3234 156.686 18.6267 156.115 17.7417C155.944 17.5078 155.751 17.345 155.535 17.2535C155.32 17.1619 155.102 17.167 154.881 17.2687C154.67 17.3501 154.535 17.523 154.475 17.7875C154.414 18.052 154.43 18.3775 154.52 18.764L154.986 21.8002C155.056 22.1054 155.157 22.3088 155.287 22.4105C155.417 22.5122 155.558 22.5631 155.708 22.5631C155.879 22.5631 156.087 22.5071 156.333 22.3953L157.07 22.0596C157.316 21.9477 157.514 21.8918 157.664 21.8918C157.815 21.8918 158.013 21.9477 158.258 22.0596C158.504 22.1715 158.825 22.2834 159.221 22.3953C159.618 22.5071 160.117 22.5631 160.718 22.5631ZM174.981 21.9913C174.319 22.3422 173.537 22.5176 172.634 22.5176C171.109 22.5176 169.963 22.1464 169.196 21.4038C168.429 20.6613 168.045 19.4916 168.045 17.8946V10.9983C168.045 10.7846 168.025 10.6219 167.985 10.51C167.945 10.3981 167.845 10.3066 167.684 10.2354L166.977 10.0065C166.807 9.92515 166.696 9.82597 166.646 9.709C166.596 9.59202 166.571 9.44708 166.571 9.27416C166.571 9.06056 166.646 8.88509 166.796 8.74778C166.947 8.61046 167.132 8.5418 167.353 8.5418H168.09C168.181 8.5418 168.276 8.5062 168.376 8.435C168.476 8.3638 168.612 8.22139 168.782 8.00779L171.566 5.6734C171.766 5.42928 171.967 5.24365 172.168 5.1165C172.368 4.98935 172.569 4.92578 172.769 4.92578C173 4.92578 173.181 4.99698 173.311 5.13939L173.352 5.18987C173.455 5.33252 173.507 5.53947 173.507 5.81071L173.506 8.5418H176.651C176.872 8.5418 177.042 8.59012 177.162 8.68675C177.283 8.78338 177.343 8.93341 177.343 9.13684C177.343 9.42165 177.218 9.66577 176.967 9.8692L176.911 9.91124C176.658 10.0866 176.275 10.1744 175.763 10.1744H173.506L173.507 17.1318C173.507 17.8946 173.634 18.4592 173.89 18.8253C174.146 19.1915 174.52 19.3746 175.011 19.3746C175.222 19.3746 175.417 19.3288 175.598 19.2373C175.778 19.1457 175.941 19.0262 176.087 18.8787C176.232 18.7312 176.37 18.566 176.5 18.3829C176.631 18.1998 176.756 18.0167 176.877 17.8336C176.977 17.7929 177.065 17.8107 177.14 17.887C177.215 17.9633 177.248 18.1184 177.238 18.3524C177.167 19.1763 176.939 19.901 176.553 20.5265C176.167 21.1521 175.643 21.6403 174.981 21.9913ZM184.835 22.5173C186.109 22.5173 187.232 22.2681 188.205 21.7697C189.178 21.2713 189.936 20.6076 190.477 19.7786C191.019 18.9496 191.29 18.0367 191.29 17.0399C191.29 16.8466 191.254 16.7093 191.184 16.6279C191.114 16.5466 191.029 16.5059 190.928 16.5059C190.858 16.5059 190.776 16.5288 190.68 16.5745C190.585 16.6203 190.477 16.7093 190.357 16.8415C190.146 17.4925 189.732 18.0011 189.116 18.3673C188.499 18.7335 187.789 18.9166 186.987 18.9166C185.733 18.9166 184.73 18.4868 183.978 17.6273C183.537 17.1235 183.225 16.4527 183.043 15.615L183.028 15.5447H189.905C190.341 15.5447 190.682 15.4298 190.929 15.2001L190.989 15.1403C191.239 14.8708 191.365 14.5021 191.365 14.0342C191.365 12.956 191.112 11.977 190.605 11.0971C190.099 10.2173 189.374 9.5205 188.431 9.00683C187.488 8.49316 186.365 8.23633 185.061 8.23633C183.526 8.23633 182.212 8.54148 181.119 9.15178C180.026 9.76208 179.191 10.614 178.614 11.7074C178.038 12.8009 177.749 14.0749 177.749 15.5294C177.749 16.9127 178.048 18.1308 178.644 19.1836C179.241 20.2363 180.071 21.0551 181.134 21.64C182.197 22.2249 183.431 22.5173 184.835 22.5173ZM182.849 13.5926C182.849 13.8451 182.857 14.0884 182.871 14.3225L182.873 14.3555H185.211C185.593 14.3555 185.783 14.1419 185.783 13.7147C185.783 12.3212 185.63 11.3243 185.324 10.7242C185.018 10.1241 184.69 9.82401 184.339 9.82401C184.068 9.82401 183.822 9.93845 183.602 10.1673C183.381 10.3962 183.2 10.7852 183.06 11.3345C182.92 11.8838 182.849 12.6365 182.849 13.5926ZM200.482 22.2122C200.723 22.2122 200.906 22.1486 201.031 22.0215C201.157 21.8943 201.219 21.729 201.219 21.5256C201.219 21.3527 201.174 21.2026 201.084 21.0755C200.994 20.9483 200.843 20.8695 200.632 20.839L199.504 20.6101C199.314 20.5695 199.173 20.4652 199.083 20.2974C198.993 20.1295 198.947 19.9032 198.947 19.6184V14.2478C198.947 13.6476 198.983 13.1543 199.053 12.7678C199.123 12.3813 199.226 12.0939 199.361 11.9057C199.497 11.7176 199.655 11.6235 199.835 11.6235C200.016 11.6235 200.146 11.6896 200.226 11.8218C200.307 11.9541 200.352 12.1372 200.362 12.3711L200.377 12.9814C200.397 13.6731 200.585 14.2071 200.941 14.5834C201.297 14.9598 201.846 15.148 202.588 15.148C203.351 15.148 203.972 14.8733 204.454 14.3241C204.935 13.7748 205.176 12.9153 205.176 11.7455C205.176 10.5656 204.945 9.68579 204.484 9.106C204.023 8.52622 203.361 8.23633 202.498 8.23633C201.786 8.23633 201.129 8.45756 200.527 8.90003C199.925 9.34249 199.441 10.0189 199.075 10.9293C199.014 11.081 198.958 11.2394 198.908 11.4046L198.881 11.4925L198.767 9.12126C198.74 8.84098 198.692 8.63704 198.621 8.50946L198.594 8.46519C198.509 8.34313 198.381 8.2821 198.21 8.2821C198.09 8.2821 197.944 8.30244 197.774 8.34313C197.603 8.38382 197.393 8.45502 197.142 8.55674L192.869 9.79259C192.629 9.88414 192.458 9.99348 192.358 10.1206C192.257 10.2478 192.207 10.3927 192.207 10.5555C192.207 10.6979 192.24 10.8148 192.305 10.9064C192.37 10.9979 192.473 11.0844 192.614 11.1658L193.005 11.2115C193.135 11.2726 193.228 11.3565 193.283 11.4633C193.338 11.5701 193.366 11.7455 193.366 11.9897V19.7405C193.366 20.0456 193.341 20.2643 193.291 20.3965C193.24 20.5288 193.15 20.6254 193.02 20.6864L192.674 20.8237C192.543 20.9153 192.441 21.0145 192.365 21.1213C192.29 21.2281 192.252 21.3628 192.252 21.5256C192.252 21.7392 192.315 21.907 192.441 22.0291C192.566 22.1511 192.739 22.2122 192.96 22.2122H200.482ZM216.324 21.3272C215.372 22.1511 214.002 22.5631 212.217 22.5631C211.615 22.5631 211.116 22.5071 210.72 22.3953C210.324 22.2834 210.003 22.1715 209.757 22.0596C209.512 21.9477 209.313 21.8918 209.163 21.8918C209.013 21.8918 208.814 21.9477 208.569 22.0596L207.831 22.3953C207.586 22.5071 207.378 22.5631 207.207 22.5631C207.057 22.5631 206.916 22.5122 206.786 22.4105C206.655 22.3088 206.555 22.1054 206.485 21.8002L206.019 18.764C205.928 18.3775 205.913 18.052 205.973 17.7875C206.034 17.523 206.169 17.3501 206.38 17.2687C206.6 17.167 206.818 17.1619 207.034 17.2535C207.25 17.345 207.443 17.5078 207.613 17.7417C208.185 18.6267 208.702 19.3234 209.163 19.832C209.624 20.3406 210.073 20.6991 210.509 20.9077C210.946 21.1162 211.405 21.2204 211.886 21.2204C212.398 21.2204 212.779 21.0984 213.03 20.8543C213.28 20.6101 213.406 20.2999 213.406 19.9235C213.406 19.6387 213.333 19.3794 213.187 19.1454C213.042 18.9115 212.776 18.6953 212.39 18.497C212.004 18.2986 211.45 18.1028 210.728 17.9096C209.614 17.6248 208.692 17.2535 207.959 16.7958C207.227 16.338 206.683 15.7888 206.327 15.148C205.971 14.5071 205.793 13.7595 205.793 12.9051C205.793 11.9388 206.031 11.1073 206.508 10.4105C206.984 9.71376 207.636 9.17721 208.463 8.80085C209.291 8.4245 210.221 8.23633 211.254 8.23633C211.876 8.23633 212.383 8.29736 212.774 8.41942C213.165 8.54148 213.468 8.66354 213.684 8.7856C213.9 8.90766 214.063 8.96869 214.173 8.96869C214.293 8.96869 214.471 8.9102 214.707 8.79323C214.943 8.67625 215.181 8.56182 215.422 8.44993C215.662 8.33804 215.863 8.2821 216.023 8.2821C216.204 8.2821 216.349 8.34313 216.46 8.46519C216.57 8.58725 216.645 8.79577 216.685 9.09075L217.077 11.8981C217.147 12.305 217.157 12.6178 217.107 12.8365C217.057 13.0551 216.926 13.195 216.716 13.256C216.545 13.2967 216.364 13.2637 216.174 13.1569C215.983 13.0501 215.793 12.8797 215.602 12.6457C214.87 11.537 214.201 10.7538 213.594 10.2961C212.987 9.83836 212.342 9.6095 211.66 9.6095C211.169 9.6095 210.798 9.7163 210.547 9.92991C210.296 10.1435 210.171 10.4232 210.171 10.7691C210.171 11.003 210.226 11.2217 210.336 11.4251C210.447 11.6286 210.65 11.8193 210.946 11.9973C211.242 12.1753 211.66 12.3508 212.202 12.5237C213.656 12.9712 214.785 13.4468 215.587 13.9503C216.39 14.4537 216.951 15.031 217.272 15.682C217.593 16.333 217.754 17.0907 217.754 17.9553C217.754 19.3794 217.277 20.5033 216.324 21.3272Z" fill="white"/>
<path fill-rule="evenodd" clip-rule="evenodd" d="M13.2823 4.10374C10.0382 0.862302 5.22953 0.395679 2.56282 3.06526C-0.105272 5.73345 0.361333 10.5423 3.59988 13.7851C4.46386 14.6491 5.45937 15.3096 6.51027 15.7831C6.85503 13.7796 7.84363 11.8535 9.34452 10.2723C8.84745 10.0951 8.33792 9.94552 7.80624 9.80013C4.6577 8.93612 3.09312 6.30946 2.72759 3.23003C3.02991 3.59359 3.30517 3.97493 3.57962 4.35514C4.11211 5.09283 4.64154 5.8263 5.35968 6.41746C6.47683 7.33735 7.70308 7.69244 9.04462 8.08092C9.09641 8.09592 9.14838 8.11097 9.20052 8.1261C9.83604 8.31026 10.3885 8.58304 10.8953 8.9015C12.2272 7.9281 13.7295 7.28009 15.2802 7.01286C14.8081 5.96192 14.1463 4.96775 13.2823 4.10374ZM7.79657 16.5523C8.00288 14.5459 8.97486 12.5839 10.5325 11.0262C13.7766 7.78475 18.5853 7.31675 21.252 9.98771C23.9201 12.6559 23.4548 17.4647 20.2121 20.7076C18.6545 22.2653 16.6925 23.2373 14.6863 23.445C14.419 23.4713 14.1546 23.4851 13.8957 23.4851C12.1705 23.4851 10.6294 22.8801 9.49407 21.7447C8.18703 20.4389 7.58335 18.5946 7.79657 16.5523ZM12.5415 18.199C13.6049 17.3876 14.7555 17.0664 16.0072 16.7244C19.1557 15.8604 20.7189 13.2337 21.0858 10.1543C20.786 10.5158 20.5128 10.8946 20.2404 11.2722L20.2404 11.2722C19.7063 12.0125 19.1753 12.7485 18.4537 13.3417C17.3331 14.2631 16.1041 14.6188 14.7565 15.0088L14.6129 15.0504C11.5322 15.9448 10.0091 18.5493 9.65746 21.5803C9.96094 21.2157 10.2389 20.8372 10.5155 20.4606L10.5155 20.4606C11.1158 19.6432 11.7093 18.8351 12.5415 18.199Z" fill="#0E8784"/>
</svg>
